<svg width="106" height="46" viewBox="0 0 106 46" fill="none" xmlns="http://www.w3.org/2000/svg">
<path fill-rule="evenodd" clip-rule="evenodd" d="M61.3608 8.31365C61.3608 10.0964 60.7768 11.7409 59.791 13.0686L54.6252 19.955L53.3786 21.618L52.1308 19.955L46.9663 13.0686C46.2142 12.0541 45.7136 10.8755 45.5055 9.62986C45.2974 8.38419 45.3879 7.10692 45.7694 5.903C46.151 4.69909 46.8127 3.60288 47.7003 2.70446C48.5878 1.80604 49.6759 1.13104 50.875 0.734928C52.0742 0.338813 53.3502 0.232887 54.5982 0.425851C55.8463 0.618816 57.0307 1.10517 58.0543 1.84494C59.0778 2.58471 59.9112 3.5568 60.486 4.68132C61.0609 5.80585 61.3607 7.05072 61.3608 8.31365Z" fill="black"/>
<circle cx="53.3786" cy="8.31431" r="6.72575" fill="black" stroke="white" stroke-width="1.03473"/>
<circle cx="53.3786" cy="8.31432" r="5.76493" fill="url(#paint0_radial_8_25)" stroke="black" stroke-width="0.886913"/>
<circle cx="53.3787" cy="8.31435" r="2.66074" fill="url(#paint1_radial_8_25)"/>
<circle cx="56.4828" cy="4.32321" r="1.33037" fill="url(#paint2_radial_8_25)"/>
<circle cx="51.6048" cy="10.0881" r="0.886913" fill="url(#paint3_radial_8_25)"/>
<path d="M11.5057 39.4966V40.0427H2.7381V39.4966H11.5057ZM3.09204 25.3188V40.0427H2.54596V25.3188H3.09204ZM10.4742 32.1953V32.7414H2.7381V32.1953H10.4742ZM11.5057 25.3188V25.8649H2.7381V25.3188H11.5057ZM20.8336 38.991L24.6157 29.1009H25.2225L20.3583 41.863C20.2707 42.0922 20.1628 42.3551 20.0347 42.6518C19.9133 42.9484 19.7482 43.2349 19.5392 43.5113C19.3302 43.7878 19.0571 44.0136 18.7201 44.1889C18.3897 44.3709 17.9751 44.4619 17.4762 44.4619C17.3683 44.4619 17.2268 44.4518 17.0515 44.4316C16.8762 44.4114 16.7481 44.3844 16.6672 44.3507L16.6571 43.835C16.7582 43.8619 16.8897 43.8821 17.0515 43.8956C17.2133 43.9159 17.3279 43.926 17.3953 43.926C17.847 43.926 18.2212 43.8316 18.5178 43.6428C18.8212 43.4608 19.074 43.2046 19.2762 42.8743C19.4785 42.5506 19.6572 42.1799 19.8122 41.7619L20.8336 38.991ZM16.7076 29.1009L20.8437 39.3955L21.0156 39.9416L20.5808 40.2551L16.111 29.1009H16.7076ZM34.7222 40.245C34.0548 40.245 33.4312 40.1135 32.8514 39.8506C32.2716 39.5809 31.7626 39.2034 31.3244 38.718C30.8862 38.2326 30.5424 37.6595 30.2929 36.9988C30.0502 36.3314 29.9289 35.5999 29.9289 34.8044V34.3594C29.9289 33.5572 30.0468 32.8257 30.2828 32.165C30.5255 31.4976 30.8558 30.9212 31.2738 30.4358C31.6986 29.9436 32.1873 29.5661 32.7402 29.3031C33.293 29.0335 33.8863 28.8986 34.52 28.8986C35.1267 28.8986 35.6829 29.0132 36.1886 29.2425C36.6942 29.4649 37.1324 29.7818 37.5032 30.1931C37.8807 30.6043 38.1706 31.0964 38.3729 31.6695C38.5751 32.2425 38.6763 32.8763 38.6763 33.5707V34.2078H30.2828V33.6617H38.1302V33.5302C38.1302 32.7954 37.9819 32.1212 37.6852 31.5077C37.3886 30.8874 36.9706 30.3886 36.4313 30.011C35.8919 29.6335 35.2548 29.4447 34.52 29.4447C33.9132 29.4447 33.3604 29.5728 32.8615 29.829C32.3694 30.0852 31.9446 30.4391 31.5873 30.8908C31.23 31.3358 30.9536 31.8549 30.7581 32.4482C30.5693 33.0414 30.4749 33.6785 30.4749 34.3594V34.8044C30.4749 35.4853 30.5828 36.1224 30.7985 36.7157C31.0143 37.309 31.3143 37.8314 31.6986 38.2831C32.0828 38.7281 32.5312 39.0787 33.0435 39.3348C33.5627 39.5843 34.1222 39.709 34.7222 39.709C35.3492 39.709 35.9324 39.6045 36.4717 39.3955C37.0178 39.1865 37.5167 38.7888 37.9684 38.2022L38.3527 38.4753C38.11 38.8191 37.8167 39.1258 37.4729 39.3955C37.1358 39.6584 36.738 39.8674 36.2796 40.0225C35.8279 40.1708 35.3088 40.245 34.7222 40.245ZM45.3748 31.2043V44.2496H44.8288V29.1009H45.3748V31.2043ZM53.2121 34.4606V34.6729C53.2121 35.5089 53.1177 36.2674 52.929 36.9483C52.7469 37.6292 52.4806 38.2157 52.1301 38.7079C51.7795 39.2 51.348 39.5809 50.8357 39.8506C50.33 40.1135 49.7536 40.245 49.1064 40.245C48.4929 40.245 47.9401 40.1573 47.4479 39.982C46.9558 39.8068 46.5277 39.5641 46.1636 39.2539C45.8063 38.9438 45.5164 38.5933 45.2939 38.2022C45.0715 37.8045 44.9164 37.3899 44.8288 36.9584V32.5088C44.9501 31.9965 45.1288 31.5212 45.3647 31.083C45.6007 30.6447 45.894 30.2638 46.2445 29.9402C46.5951 29.6099 47.0063 29.3537 47.4783 29.1717C47.9569 28.9897 48.4929 28.8986 49.0862 28.8986C49.7334 28.8986 50.3132 29.0267 50.8255 29.2829C51.3379 29.5391 51.7694 29.9099 52.12 30.3953C52.4773 30.874 52.7469 31.4571 52.929 32.1448C53.1177 32.8257 53.2121 33.5976 53.2121 34.4606ZM52.6559 34.6729V34.4606C52.6559 33.7325 52.5818 33.065 52.4334 32.4583C52.2919 31.8448 52.0728 31.3155 51.7761 30.8706C51.4862 30.4189 51.1154 30.0683 50.6637 29.8189C50.2188 29.5694 49.6963 29.4447 49.0963 29.4447C48.4086 29.4447 47.8288 29.5593 47.3569 29.7885C46.8917 30.011 46.5108 30.3009 46.2142 30.6582C45.9243 31.0088 45.6984 31.383 45.5366 31.7807C45.3816 32.1717 45.267 32.5358 45.1928 32.8729V36.7056C45.3142 37.2584 45.5366 37.7606 45.8603 38.2123C46.1839 38.664 46.6153 39.0247 47.1547 39.2944C47.7007 39.5641 48.3547 39.6989 49.1165 39.6989C49.7165 39.6989 50.2356 39.5742 50.6738 39.3247C51.1188 39.0753 51.4862 38.7281 51.7761 38.2831C52.0728 37.8314 52.2919 37.2988 52.4334 36.6853C52.5818 36.0718 52.6559 35.401 52.6559 34.6729ZM60.3658 31.0021V40.0427H59.8197V29.1009H60.3658V31.0021ZM64.7041 29.0099L64.6434 29.4953C64.5355 29.4818 64.4209 29.4683 64.2996 29.4548C64.185 29.4413 64.0636 29.4346 63.9355 29.4346C63.322 29.4346 62.7827 29.5593 62.3175 29.8088C61.8591 30.0582 61.4748 30.402 61.1647 30.8403C60.8613 31.2785 60.6321 31.7841 60.477 32.3571C60.3287 32.9235 60.2545 33.5302 60.2545 34.1774L59.8905 34.2078C59.8905 33.4392 59.9714 32.7313 60.1332 32.0841C60.3017 31.4369 60.5512 30.8773 60.8815 30.4054C61.2186 29.9268 61.64 29.556 62.1456 29.293C62.658 29.0301 63.2546 28.8986 63.9355 28.8986C64.1041 28.8986 64.2524 28.9088 64.3805 28.929C64.5086 28.9492 64.6164 28.9762 64.7041 29.0099ZM69.3498 34.7842V34.3594C69.3498 33.5572 69.4644 32.8223 69.6936 32.1549C69.9296 31.4875 70.2566 30.911 70.6746 30.4256C71.0993 29.9402 71.6049 29.5661 72.1914 29.3031C72.778 29.0335 73.4252 28.8986 74.1331 28.8986C74.8477 28.8986 75.4983 29.0335 76.0848 29.3031C76.6713 29.5661 77.177 29.9402 77.6017 30.4256C78.0264 30.911 78.3534 31.4875 78.5826 32.1549C78.8118 32.8223 78.9264 33.5572 78.9264 34.3594V34.7842C78.9264 35.5864 78.8118 36.3213 78.5826 36.9887C78.3534 37.6562 78.0264 38.2326 77.6017 38.718C77.1837 39.2034 76.6814 39.5809 76.0949 39.8506C75.5084 40.1135 74.8612 40.245 74.1533 40.245C73.4387 40.245 72.7881 40.1135 72.2016 39.8506C71.615 39.5809 71.1094 39.2034 70.6847 38.718C70.2599 38.2326 69.9296 37.6562 69.6936 36.9887C69.4644 36.3213 69.3498 35.5864 69.3498 34.7842ZM69.8959 34.3594V34.7842C69.8959 35.4381 69.9903 36.0617 70.179 36.655C70.3745 37.2415 70.6543 37.764 71.0184 38.2225C71.3824 38.6809 71.8274 39.0416 72.3532 39.3045C72.8791 39.5674 73.4791 39.6989 74.1533 39.6989C74.8207 39.6989 75.414 39.5674 75.9331 39.3045C76.459 39.0416 76.9039 38.6809 77.268 38.2225C77.632 37.764 77.9084 37.2415 78.0972 36.655C78.286 36.0617 78.3804 35.4381 78.3804 34.7842V34.3594C78.3804 33.719 78.286 33.1055 78.0972 32.5189C77.9084 31.9324 77.6287 31.4099 77.2579 30.9515C76.8938 30.4863 76.4488 30.1189 75.923 29.8492C75.3971 29.5796 74.8005 29.4447 74.1331 29.4447C73.4656 29.4447 72.869 29.5796 72.3431 29.8492C71.824 30.1189 71.3791 30.4863 71.0083 30.9515C70.6442 31.4099 70.3678 31.9324 70.179 32.5189C69.9903 33.1055 69.8959 33.719 69.8959 34.3594ZM85.7565 31.4369V40.0427H85.2104V29.1009H85.7565V31.4369ZM85.6655 33.6313L85.3722 33.0549C85.4396 32.5156 85.5879 31.9998 85.8172 31.5077C86.0464 31.0088 86.3464 30.5638 86.7172 30.1728C87.088 29.7818 87.5195 29.4717 88.0116 29.2425C88.5037 29.0132 89.0465 28.8986 89.6397 28.8986C90.1925 28.8986 90.6847 28.9762 91.1162 29.1312C91.5476 29.2795 91.9117 29.5189 92.2083 29.8492C92.505 30.1728 92.7308 30.5908 92.8859 31.1032C93.0409 31.6156 93.1185 32.2358 93.1185 32.9639V40.0427H92.5724V32.9639C92.5724 32.0335 92.4443 31.3155 92.1881 30.8099C91.9387 30.2975 91.5915 29.9402 91.1465 29.738C90.7015 29.5357 90.1892 29.4346 89.6094 29.4346C88.9217 29.4346 88.3318 29.5897 87.8397 29.8998C87.3543 30.2032 86.9531 30.5841 86.6363 31.0425C86.3262 31.5009 86.0902 31.9661 85.9284 32.438C85.7733 32.91 85.6857 33.3077 85.6655 33.6313ZM103.892 29.1009V29.6571H98.826V29.1009H103.892ZM100.849 26.148H101.405V37.4236C101.405 38.064 101.479 38.5494 101.627 38.8798C101.782 39.2034 101.985 39.4225 102.234 39.5371C102.49 39.645 102.763 39.6989 103.053 39.6989C103.262 39.6989 103.447 39.6922 103.609 39.6787C103.771 39.6584 103.946 39.6348 104.135 39.6079L104.226 40.1236C104.078 40.1708 103.886 40.2012 103.65 40.2146C103.414 40.2349 103.225 40.245 103.083 40.245C102.618 40.245 102.217 40.1641 101.88 40.0023C101.55 39.8337 101.293 39.5438 101.111 39.1326C100.936 38.7213 100.849 38.1517 100.849 37.4236V26.148Z" fill="black"/>
<defs>
<radialGradient id="paint0_radial_8_25" cx="0" cy="0" r="1" gradientUnits="userSpaceOnUse" gradientTransform="translate(53.3786 8.31432) rotate(90) scale(5.32148)">
<stop stop-color="#1400FB"/>
<stop offset="1" stop-color="#A49CFF"/>
</radialGradient>
<radialGradient id="paint1_radial_8_25" cx="0" cy="0" r="1" gradientUnits="userSpaceOnUse" gradientTransform="translate(53.3787 8.31435) rotate(90) scale(2.66074)">
<stop offset="0.822917"/>
<stop offset="1" stop-opacity="0"/>
</radialGradient>
<radialGradient id="paint2_radial_8_25" cx="0" cy="0" r="1" gradientUnits="userSpaceOnUse" gradientTransform="translate(56.4828 4.32321) rotate(90) scale(1.33037)">
<stop stop-color="white"/>
<stop offset="1" stop-color="white" stop-opacity="0"/>
</radialGradient>
<radialGradient id="paint3_radial_8_25" cx="0" cy="0" r="1" gradientUnits="userSpaceOnUse" gradientTransform="translate(51.6048 10.0881) rotate(90) scale(0.886913)">
<stop stop-color="white"/>
<stop offset="1" stop-color="white" stop-opacity="0"/>
</radialGradient>
</defs>
</svg>
